<svg width="110" height="45" viewBox="0 0 110 45" fill="none" xmlns="http://www.w3.org/2000/svg">
<path d="M44.7841 14.403V34.6663H39.8216V14.403H31.5649V10.5918H53.0379V14.403H44.7841Z" fill="#172C6C"/>
<path d="M58.7061 34.6663V10.5918H74.6201V14.4025H63.67V20.0617H72.5844V23.8697H63.67V30.8501H74.6201V34.6663H58.7061Z" fill="#172C6C"/>
<path d="M93.3362 21.2211H105.444C105.522 21.5477 105.58 21.8788 105.617 22.2124C105.662 22.5986 105.685 22.9871 105.685 23.3758C105.694 24.8862 105.45 26.3876 104.962 27.8184C104.479 29.2069 103.703 30.4772 102.686 31.5447C101.571 32.7146 100.219 33.6364 98.718 34.2491C97.0398 34.9109 95.2456 35.2356 93.4398 35.2042C91.703 35.2146 89.9808 34.8902 88.3688 34.2491C86.8263 33.6372 85.4201 32.7305 84.2302 31.5807C83.0427 30.4205 82.0919 29.0441 81.4301 27.5269C80.7481 25.907 80.397 24.1691 80.397 22.4137C80.397 20.6583 80.7481 18.9204 81.4301 17.3005C82.0913 15.7829 83.0421 14.4064 84.2302 13.2467C85.4226 12.0948 86.8329 11.1879 88.38 10.5783C91.7397 9.27747 95.4743 9.30231 98.816 10.6478C100.348 11.3066 101.724 12.275 102.857 13.491L99.6589 16.6036C98.8759 15.7411 97.9104 15.0609 96.8314 14.6116C95.7524 14.1623 94.5866 13.9551 93.4174 14.0047C92.3192 13.9995 91.2301 14.2022 90.2085 14.6017C89.2196 14.987 88.3174 15.5627 87.5539 16.2954C86.7774 17.0503 86.1613 17.952 85.7423 18.9471C84.847 21.1758 84.847 23.66 85.7423 25.8887C86.1633 26.886 86.7855 27.7874 87.5707 28.5376C88.3422 29.2683 89.2495 29.8435 90.2421 30.2313C92.3584 31.02 94.6895 31.0318 96.8139 30.2646C97.6713 29.9216 98.4602 29.4299 99.1436 28.8124C99.6291 28.3662 100.032 27.839 100.334 27.2548C100.681 26.5896 100.942 25.8833 101.109 25.1528H93.3362V21.2211Z" fill="#172C6C"/>
<path d="M6.4151 25.2793V10.6997H4.09778V10.7859C4.09778 11.6615 4.09778 25.2793 4.09778 25.2793C4.08317 26.5221 4.28558 27.758 4.69599 28.9319C5.50943 31.1557 7.47732 33.007 9.4033 33.9132C10.0291 34.2031 10.6854 34.4231 11.36 34.5692C12.4782 34.8471 15.2204 34.761 16.85 34.7637C6.13557 32.6873 6.4151 25.2793 6.4151 25.2793Z" fill="#F8A600"/>
<path d="M6.93103 10.6997H10.1258V24.3578C10.1249 25.1866 10.2493 26.011 10.4948 26.8036C10.7266 27.5878 11.0185 28.3534 11.3682 29.0939C12.2387 30.9311 13.5318 32.6348 15.332 33.5743C15.5666 33.7205 15.8207 33.8337 16.087 33.9106C16.087 33.9106 11.9964 33.1685 9.46936 30.7004C7.91797 29.166 7.03112 27.0973 6.99582 24.9303L6.97892 20.9363L6.95357 15.1773L6.93385 11.0972L6.93103 10.6997Z" fill="#D4002C"/>
<path d="M23.9313 31.7873C25.6177 30.0751 26.5283 27.8394 26.4355 24.9189V10.5918H21.3765V24.9189C21.3765 32.9928 12.599 30.0751 12.599 30.0751C12.599 30.0751 15.151 34.8971 20.7329 33.7278C21.9551 33.376 23.0596 32.7059 23.9313 31.7873Z" fill="#172C6C"/>
</svg>
