<svg width="688" height="688" viewBox="0 0 688 688" fill="none" xmlns="http://www.w3.org/2000/svg">
<rect width="688" height="688" fill="#253164"/>
<path d="M130.357 378.364V425.416H118.996V378.364H100.081V369.51H149.273V378.364H130.357Z" fill="white"/>
<path d="M162.504 425.416V369.51H198.931V378.364H173.865V391.505H194.275V400.351H173.865V416.593H198.931V425.446L162.504 425.416Z" fill="white"/>
<path d="M241.988 394.118H269.855C270.036 394.875 270.169 395.642 270.253 396.416C270.358 397.313 270.41 398.216 270.41 399.119C270.433 402.627 269.87 406.114 268.743 409.437C267.626 412.663 265.834 415.615 263.487 418.095C260.923 420.81 257.81 422.947 254.356 424.365C250.498 425.915 246.371 426.681 242.214 426.618C238.212 426.632 234.246 425.866 230.537 424.365C226.985 422.95 223.748 420.844 221.015 418.17C218.282 415.479 216.097 412.284 214.58 408.761C213.009 405.001 212.201 400.967 212.201 396.893C212.201 392.818 213.009 388.784 214.58 385.025C216.099 381.503 218.284 378.308 221.015 375.616C223.751 372.946 226.986 370.843 230.537 369.428C238.271 366.399 246.873 366.455 254.566 369.586C258.099 371.109 261.275 373.352 263.893 376.171L256.511 383.395C253.736 380.572 250.192 378.627 246.32 377.802C242.448 376.977 238.42 377.308 234.735 378.754C232.457 379.646 230.38 380.981 228.622 382.682C226.836 384.433 225.419 386.524 224.454 388.832C222.382 394.006 222.382 399.78 224.454 404.954C225.42 407.27 226.851 409.364 228.66 411.104C230.434 412.801 232.523 414.135 234.81 415.031C239.679 416.864 245.044 416.894 249.933 415.114C251.907 414.318 253.722 413.176 255.295 411.742C256.415 410.71 257.343 409.487 258.035 408.13C258.834 406.582 259.434 404.94 259.823 403.242H241.988V394.118Z" fill="white"/>
<path d="M42.3128 403.429V369.638H36.9663V369.841C36.9663 371.868 36.9663 403.437 36.9663 403.437C36.9453 406.318 37.4229 409.181 38.378 411.9C40.2478 417.073 44.7908 421.354 49.2287 423.449C50.6701 424.115 52.1813 424.619 53.7342 424.951C56.3324 425.619 62.6325 425.394 66.3871 425.401C41.667 420.61 42.3128 403.429 42.3128 403.429Z" fill="#EF9F0B"/>
<path d="M43.5443 369.631H50.8507V401.297C50.8483 403.221 51.1343 405.134 51.6992 406.974C52.2283 408.792 52.8961 410.567 53.6966 412.283C55.6866 416.548 58.6452 420.49 62.7677 422.668C63.302 422.999 63.8811 423.252 64.4873 423.419C64.4873 423.419 55.1309 421.699 49.3564 415.977C45.8032 412.421 43.7728 407.622 43.6945 402.596L43.5443 369.631Z" fill="#B01730"/>
<path d="M82.5843 418.62C86.4365 414.648 88.5466 409.482 88.3288 402.716V369.556H76.7197V402.716C76.7197 421.429 56.5952 414.655 56.5952 414.655C56.5952 414.655 62.4523 425.814 75.2479 423.111C78.051 422.297 80.5845 420.746 82.5843 418.62Z" fill="white"/>
<path d="M49.7844 454.889H40.9837L38.806 459.087H34.1654L45.9998 437.033H51.1435L55.1534 459.087H50.4827L49.7844 454.889ZM49.2137 451.45L47.6368 442.124L42.7784 451.458L49.2137 451.45Z" fill="white"/>
<path d="M75.1728 442.792C75.7132 443.34 76.1317 443.996 76.4009 444.717C76.6701 445.437 76.7838 446.207 76.7347 446.975C76.7399 447.589 76.6871 448.203 76.577 448.807L74.7448 459.057H70.367L72.064 449.4C72.1294 449.036 72.1621 448.667 72.1616 448.296C72.1976 447.859 72.1435 447.419 72.0027 447.003C71.862 446.587 71.6375 446.204 71.3431 445.878C71.0193 445.59 70.6414 445.37 70.2314 445.229C69.8215 445.089 69.3877 445.031 68.9552 445.06C67.8585 445.035 66.7905 445.412 65.9516 446.119C65.0807 446.907 64.4991 447.965 64.2996 449.122L62.565 458.997H58.1195L61.2058 441.523H65.6512L65.2758 443.663C66.0055 442.92 66.8726 442.326 67.8289 441.914C68.8045 441.487 69.8579 441.267 70.9226 441.268C72.4837 441.204 74.0082 441.751 75.1728 442.792Z" fill="white"/>
<path d="M86.4966 441.583L83.4329 459.057H78.9274L82.0211 441.583H86.4966ZM82.9973 438.903C82.7937 438.71 82.6324 438.477 82.5238 438.218C82.4152 437.959 82.3617 437.681 82.3666 437.401C82.3622 436.992 82.4458 436.588 82.6117 436.215C82.7775 435.842 83.0217 435.509 83.3277 435.238C83.9298 434.651 84.7399 434.327 85.5805 434.337C86.1864 434.312 86.7776 434.528 87.225 434.938C87.4286 435.131 87.5899 435.364 87.6985 435.622C87.807 435.881 87.8606 436.159 87.8557 436.44C87.8595 436.846 87.7772 437.249 87.6141 437.622C87.451 437.995 87.2109 438.329 86.9096 438.602C86.6121 438.893 86.2597 439.122 85.8729 439.275C85.4862 439.429 85.0728 439.504 84.6568 439.496C84.0472 439.524 83.4509 439.311 82.9973 438.903Z" fill="white"/>
<path d="M95.7403 454.987L102.499 441.583H107.259L97.7002 459.057H92.2786L88.9371 441.583H93.6678L95.7403 454.987Z" fill="white"/>
<path d="M122.706 443.138C123.364 443.781 123.879 444.557 124.216 445.414C124.552 446.271 124.703 447.189 124.658 448.109C124.663 448.713 124.613 449.316 124.508 449.911C124.38 450.542 124.238 451.082 124.095 451.548H111.329C111.315 451.758 111.315 451.969 111.329 452.179C111.301 452.65 111.371 453.123 111.537 453.565C111.703 454.007 111.959 454.41 112.29 454.747C112.63 455.064 113.029 455.309 113.465 455.469C113.901 455.629 114.365 455.7 114.829 455.678C115.619 455.693 116.398 455.491 117.081 455.092C117.714 454.723 118.25 454.208 118.643 453.591H123.412C122.619 455.283 121.368 456.719 119.8 457.736C118.158 458.823 116.226 459.388 114.258 459.358C112.294 459.45 110.37 458.774 108.896 457.473C108.216 456.806 107.685 456.003 107.337 455.117C106.988 454.23 106.832 453.28 106.876 452.329C106.881 451.661 106.947 450.995 107.072 450.339C107.348 448.626 108.011 446.998 109.009 445.578C109.947 444.245 111.198 443.163 112.651 442.424C114.127 441.683 115.76 441.304 117.412 441.321C119.346 441.214 121.245 441.866 122.706 443.138ZM120.183 448.131C120.204 447.69 120.128 447.248 119.959 446.84C119.79 446.431 119.533 446.064 119.206 445.766C118.489 445.177 117.58 444.875 116.653 444.917C115.559 444.906 114.495 445.281 113.65 445.976C112.74 446.716 112.088 447.726 111.787 448.86H120.115C120.16 448.529 120.183 448.289 120.183 448.131Z" fill="white"/>
<path d="M135.734 442.214C136.727 441.626 137.861 441.32 139.015 441.328L138.197 445.969H137.026C135.916 445.913 134.817 446.21 133.887 446.817C132.995 447.555 132.387 448.579 132.167 449.716L130.53 459.057H126.085L129.171 441.583H133.616L133.083 444.67C133.782 443.671 134.685 442.834 135.734 442.214Z" fill="white"/>
<path d="M142.184 458.689C141.22 458.317 140.371 457.698 139.721 456.894C139.126 456.146 138.808 455.215 138.82 454.259C138.827 454.007 138.85 453.756 138.888 453.508H143.176C143.133 453.836 143.171 454.169 143.286 454.479C143.401 454.789 143.59 455.067 143.836 455.287C144.443 455.772 145.209 456.013 145.984 455.963C146.71 455.991 147.431 455.833 148.079 455.505C148.325 455.392 148.533 455.212 148.682 454.986C148.831 454.76 148.913 454.497 148.92 454.227C148.927 453.957 148.859 453.69 148.722 453.457C148.585 453.223 148.386 453.033 148.147 452.907C147.366 452.473 146.546 452.114 145.699 451.833C144.751 451.505 143.826 451.116 142.928 450.669C142.186 450.287 141.537 449.746 141.028 449.085C140.493 448.345 140.228 447.444 140.277 446.532C140.26 445.544 140.575 444.579 141.171 443.791C141.822 442.954 142.689 442.311 143.679 441.929C144.855 441.468 146.11 441.243 147.373 441.268C148.573 441.243 149.764 441.468 150.872 441.929C151.81 442.318 152.623 442.957 153.223 443.776C153.778 444.564 154.07 445.508 154.056 446.472C154.071 446.659 154.071 446.847 154.056 447.035H149.956C150 446.712 149.965 446.383 149.855 446.076C149.746 445.769 149.564 445.493 149.326 445.27C148.727 444.794 147.972 444.558 147.208 444.609C146.555 444.583 145.909 444.753 145.353 445.097C145.124 445.23 144.934 445.42 144.802 445.65C144.67 445.879 144.601 446.139 144.602 446.404C144.606 446.681 144.684 446.952 144.828 447.188C144.972 447.424 145.177 447.618 145.421 447.748C146.223 448.212 147.068 448.596 147.944 448.897C148.875 449.249 149.786 449.655 150.67 450.114C151.365 450.482 151.974 450.994 152.457 451.615C152.978 452.308 153.243 453.16 153.208 454.026C153.224 455.049 152.875 456.045 152.224 456.834C151.515 457.677 150.587 458.308 149.543 458.659C148.309 459.096 147.008 459.31 145.699 459.29C144.499 459.328 143.303 459.124 142.184 458.689Z" fill="white"/>
<path d="M158.329 445.556C159.204 444.247 160.378 443.166 161.753 442.402C163.062 441.673 164.536 441.293 166.033 441.298C167.183 441.26 168.322 441.532 169.33 442.086C170.162 442.548 170.846 443.235 171.305 444.069L171.748 441.583H176.193L173.1 459.057H168.654L169.127 456.496C168.34 457.394 167.37 458.111 166.282 458.601C165.193 459.091 164.013 459.341 162.819 459.335C161.626 459.359 160.448 459.061 159.41 458.471C158.419 457.894 157.62 457.037 157.113 456.008C156.543 454.859 156.26 453.589 156.287 452.306C156.292 451.619 156.355 450.933 156.474 450.256C156.752 448.576 157.384 446.973 158.329 445.556ZM170.306 449.115C170.346 448.598 170.276 448.078 170.099 447.59C169.923 447.102 169.645 446.657 169.283 446.285C168.922 445.913 168.485 445.622 168.002 445.431C167.52 445.241 167.002 445.155 166.484 445.18C165.654 445.182 164.837 445.385 164.104 445.773C163.313 446.199 162.628 446.797 162.099 447.523C161.516 448.335 161.128 449.27 160.965 450.256C160.906 450.632 160.876 451.011 160.875 451.39C160.841 451.937 160.918 452.485 161.102 453.001C161.285 453.517 161.57 453.991 161.941 454.394C162.296 454.751 162.72 455.033 163.187 455.22C163.655 455.407 164.156 455.497 164.659 455.483C165.496 455.475 166.318 455.264 167.055 454.867C167.85 454.435 168.536 453.826 169.06 453.087C169.633 452.266 170.015 451.327 170.178 450.339C170.248 449.934 170.291 449.525 170.306 449.115Z" fill="white"/>
<path d="M187.059 442.214C188.052 441.626 189.186 441.32 190.34 441.328L189.522 445.969H188.351C187.241 445.913 186.142 446.21 185.212 446.817C184.319 447.555 183.712 448.579 183.492 449.716L181.855 459.057H177.41L180.496 441.583H184.949L184.408 444.67C185.107 443.671 186.01 442.834 187.059 442.214Z" fill="white"/>
<path d="M197.677 441.583L194.568 459.057H190.123L193.209 441.583H197.677ZM194.178 438.903C193.974 438.71 193.813 438.477 193.704 438.218C193.596 437.959 193.542 437.681 193.547 437.401C193.544 436.993 193.628 436.589 193.794 436.216C193.96 435.843 194.203 435.509 194.508 435.238C195.112 434.654 195.921 434.331 196.761 434.337C197.364 434.313 197.953 434.529 198.398 434.938C198.601 435.13 198.763 435.364 198.871 435.622C198.98 435.881 199.033 436.159 199.029 436.439C199.032 436.846 198.95 437.249 198.787 437.622C198.624 437.995 198.384 438.329 198.082 438.602C197.785 438.894 197.433 439.123 197.046 439.276C196.659 439.43 196.246 439.504 195.83 439.496C195.223 439.521 194.63 439.308 194.178 438.903Z" fill="white"/>
<path d="M202.776 458.426C201.653 457.842 200.726 456.941 200.11 455.836C199.463 454.659 199.137 453.333 199.164 451.991C199.142 450.093 199.626 448.224 200.568 446.577C201.48 444.969 202.808 443.636 204.413 442.717C206.067 441.765 207.948 441.274 209.857 441.298C211.243 441.271 212.613 441.591 213.844 442.229C214.98 442.814 215.922 443.717 216.555 444.827C217.215 446.002 217.549 447.332 217.524 448.679C217.55 450.582 217.059 452.456 216.104 454.101C215.175 455.706 213.828 457.03 212.207 457.931C210.538 458.873 208.649 459.357 206.733 459.335C205.359 459.366 203.999 459.054 202.776 458.426ZM210.202 454.672C211.073 454.048 211.769 453.21 212.222 452.239C212.71 451.248 212.967 450.159 212.973 449.055C213.009 448.522 212.934 447.987 212.753 447.484C212.572 446.982 212.289 446.522 211.922 446.134C211.568 445.794 211.15 445.529 210.692 445.354C210.234 445.178 209.746 445.096 209.256 445.113C208.23 445.098 207.228 445.42 206.403 446.029C205.552 446.658 204.881 447.5 204.458 448.469C203.999 449.486 203.764 450.59 203.767 451.706C203.733 452.226 203.804 452.747 203.974 453.239C204.144 453.732 204.411 454.186 204.758 454.574C205.1 454.912 205.507 455.176 205.956 455.349C206.404 455.522 206.884 455.601 207.364 455.58C208.385 455.574 209.378 455.245 210.202 454.642V454.672Z" fill="white"/>
<path d="M37.1315 473.249L37.7172 470.073H43.5743L40.5031 487.404H36.9888L39.4744 473.249H37.1315Z" fill="white"/>
<path d="M51.091 484.618C51.5705 484.628 52.0448 484.517 52.47 484.295C52.8953 484.073 53.2577 483.748 53.5239 483.349C54.2911 482.058 54.7773 480.62 54.9507 479.129C54.4628 479.667 53.8559 480.084 53.1785 480.345C52.4631 480.637 51.6982 480.787 50.9258 480.788C49.6971 480.848 48.4909 480.443 47.5467 479.655C47.1092 479.246 46.7672 478.747 46.5453 478.191C46.3233 477.636 46.2268 477.038 46.2626 476.441C46.2718 476 46.3145 475.561 46.3903 475.127C46.6401 473.452 47.4788 471.921 48.7557 470.809C50.0662 469.713 51.7342 469.139 53.4413 469.194C55.2285 469.194 56.5226 469.647 57.3236 470.554C58.1985 471.699 58.6232 473.126 58.5175 474.563C58.5046 475.761 58.3814 476.955 58.1496 478.13C57.8713 479.908 57.3849 481.647 56.7003 483.312C56.2003 484.535 55.3712 485.595 54.3049 486.375C53.1916 487.104 51.8803 487.471 50.5503 487.427C49.8723 487.481 49.1903 487.398 48.5452 487.182C47.9 486.967 47.305 486.623 46.7958 486.173C46.3861 485.746 46.0661 485.242 45.8546 484.69C45.643 484.138 45.5443 483.549 45.5643 482.959C45.5545 482.771 45.5545 482.583 45.5643 482.395H48.7406C48.7607 483.877 49.5441 484.618 51.091 484.618ZM54.2148 477.222C54.8169 476.675 55.2054 475.933 55.3111 475.127C55.3586 474.879 55.3837 474.628 55.3862 474.376C55.4071 474.068 55.3617 473.759 55.2528 473.47C55.144 473.181 54.9744 472.919 54.7554 472.701C54.2605 472.3 53.6344 472.097 52.9983 472.13C52.1693 472.099 51.3608 472.392 50.7456 472.949C50.1331 473.519 49.7288 474.278 49.5967 475.104C49.5514 475.329 49.5263 475.558 49.5216 475.787C49.5084 476.09 49.5584 476.391 49.6683 476.673C49.7782 476.955 49.9456 477.211 50.1599 477.424C50.6909 477.871 51.3754 478.092 52.0672 478.04C52.8621 478.056 53.6323 477.763 54.2148 477.222Z" fill="white"/>
<path d="M70.1717 472.513C69.7166 472.136 69.1314 471.953 68.5422 472.003C68.0144 471.99 67.4914 472.106 67.0189 472.342C66.5464 472.578 66.1387 472.925 65.8314 473.355C64.981 474.689 64.4325 476.194 64.2245 477.762C64.7599 477.108 65.445 476.593 66.2219 476.261C67.0186 475.897 67.8844 475.71 68.76 475.712C69.9588 475.648 71.1348 476.058 72.034 476.854C72.4478 477.283 72.7677 477.794 72.9732 478.354C73.1788 478.914 73.2655 479.51 73.2279 480.105C73.2309 480.579 73.1882 481.052 73.1003 481.517C72.9254 482.622 72.5101 483.676 71.8838 484.603C71.2746 485.499 70.4477 486.225 69.4809 486.713C68.4382 487.228 67.2871 487.486 66.1243 487.464C64.222 487.464 62.8553 486.994 62.0243 486.052C61.1194 484.874 60.6761 483.405 60.7778 481.922C60.802 480.687 60.9326 479.456 61.1683 478.243C61.6939 475.239 62.595 472.987 63.8941 471.485C64.5428 470.736 65.3529 470.144 66.2633 469.754C67.1738 469.364 68.161 469.185 69.1505 469.232C70.8626 469.232 72.1016 469.698 72.905 470.621C73.2987 471.102 73.5924 471.656 73.769 472.252C73.9457 472.848 74.0017 473.473 73.9338 474.09H70.7574C70.7731 473.509 70.5632 472.944 70.1717 472.513ZM65.1856 479.272C64.8413 479.537 64.5531 479.868 64.3378 480.246C64.1226 480.624 63.9845 481.04 63.9316 481.472C63.8814 481.719 63.8563 481.971 63.8565 482.223C63.8381 482.543 63.8882 482.863 64.0034 483.162C64.1187 483.461 64.2964 483.732 64.5248 483.957C65.0741 484.397 65.7681 484.614 66.4697 484.566C67.2956 484.595 68.1013 484.307 68.7225 483.762C69.3428 483.193 69.7462 482.426 69.8638 481.592C69.9113 481.344 69.9364 481.093 69.9389 480.841C69.9578 480.534 69.9135 480.226 69.8089 479.937C69.7043 479.648 69.5415 479.383 69.3307 479.159C69.0814 478.94 68.7911 478.773 68.4765 478.667C68.1619 478.561 67.8294 478.519 67.4985 478.543C66.6708 478.517 65.8576 478.765 65.1856 479.249V479.272Z" fill="white"/>
<path d="M77.6433 474.759C77.6428 474.457 77.6679 474.155 77.7184 473.858C77.8689 472.98 78.247 472.156 78.8147 471.47C79.4427 470.7 80.2461 470.092 81.1576 469.698C82.2342 469.229 83.4003 469.001 84.5742 469.029C85.9646 468.931 87.3445 469.333 88.464 470.163C88.8907 470.512 89.2322 470.954 89.4625 471.455C89.6928 471.956 89.8059 472.503 89.7931 473.054C89.792 473.323 89.7694 473.592 89.7255 473.858C89.5756 474.723 89.2 475.534 88.6367 476.208C88.083 476.877 87.3881 477.416 86.6017 477.785C87.2772 478.077 87.8483 478.567 88.2398 479.191C88.6312 479.814 88.8245 480.541 88.7944 481.277C88.7832 481.604 88.7505 481.93 88.6968 482.253C88.508 483.345 88.0339 484.369 87.3226 485.219C86.6034 486.059 85.6948 486.715 84.6719 487.134C83.5875 487.577 82.4265 487.801 81.2552 487.795C79.8208 487.862 78.4056 487.444 77.2378 486.608C76.7434 486.221 76.349 485.721 76.0877 485.15C75.8263 484.579 75.7057 483.954 75.736 483.327C75.7407 481.935 76.2142 480.586 77.0801 479.497C77.7156 478.731 78.5381 478.141 79.468 477.785C78.9045 477.51 78.4324 477.078 78.1087 476.541C77.7849 476.004 77.6233 475.385 77.6433 474.759ZM80.3541 480.015C80.0194 480.264 79.7385 480.578 79.5282 480.938C79.3178 481.298 79.1824 481.697 79.1301 482.11C79.0957 482.314 79.0807 482.52 79.0851 482.726C79.0714 483.033 79.1278 483.34 79.2501 483.622C79.3724 483.904 79.5573 484.155 79.7909 484.355C80.3514 484.796 81.0543 485.015 81.7658 484.971C82.2502 484.989 82.7332 484.909 83.186 484.736C83.6388 484.563 84.0522 484.301 84.4015 483.965C84.7366 483.645 85.0012 483.259 85.1784 482.831C85.3555 482.403 85.4413 481.943 85.4303 481.479C85.4439 481.169 85.3829 480.859 85.2522 480.577C85.1215 480.295 84.9251 480.048 84.6794 479.858C84.113 479.449 83.4245 479.245 82.727 479.279C81.8781 479.259 81.0455 479.515 80.3541 480.008V480.015ZM82.0136 472.506C81.4432 472.971 81.068 473.633 80.9624 474.361C80.9624 474.594 80.9098 474.751 80.9098 474.849C80.8982 475.118 80.9483 475.387 81.0563 475.634C81.1644 475.882 81.3274 476.101 81.533 476.276C82.0094 476.647 82.6042 476.834 83.2076 476.801C84.0398 476.819 84.8469 476.515 85.4603 475.953C85.7601 475.681 85.9977 475.348 86.1571 474.976C86.3165 474.604 86.3939 474.202 86.3839 473.798C86.4003 473.526 86.3539 473.253 86.2485 473.002C86.143 472.751 85.9813 472.527 85.7757 472.348C85.2819 471.991 84.6795 471.816 84.0711 471.853C83.3293 471.827 82.6017 472.061 82.0136 472.514V472.506Z" fill="white"/>
<path d="M98.9693 482.08C98.6948 481.847 98.4756 481.555 98.3276 481.227C98.1795 480.898 98.1063 480.541 98.1132 480.18C98.1054 479.813 98.1779 479.449 98.3258 479.113C98.4737 478.777 98.6933 478.478 98.9693 478.236C99.6001 477.713 100.404 477.445 101.222 477.485C102.041 477.439 102.847 477.708 103.475 478.236C103.751 478.478 103.97 478.777 104.118 479.113C104.266 479.449 104.339 479.813 104.331 480.18C104.338 480.541 104.265 480.898 104.116 481.227C103.968 481.555 103.749 481.847 103.475 482.08C102.845 482.606 102.041 482.874 101.222 482.831C100.404 482.868 99.6015 482.6 98.9693 482.08Z" fill="#B01730"/>
<path d="M113.98 483.424C115.782 482.113 117.201 481.034 118.238 480.188C119.21 479.409 120.107 478.542 120.918 477.597C121.593 476.862 122.06 475.96 122.27 474.984C122.32 474.752 122.345 474.515 122.345 474.278C122.36 474.027 122.324 473.776 122.239 473.54C122.154 473.304 122.021 473.087 121.85 472.904C121.43 472.554 120.893 472.38 120.348 472.416C119.98 472.406 119.615 472.471 119.274 472.608C118.933 472.745 118.624 472.95 118.365 473.212C117.794 473.844 117.414 474.625 117.269 475.465H113.973C114.242 473.726 115.136 472.145 116.488 471.019C117.761 470.02 119.338 469.49 120.956 469.517C122.274 469.422 123.58 469.827 124.613 470.651C125.026 471.031 125.352 471.497 125.567 472.016C125.783 472.534 125.882 473.094 125.859 473.655C125.864 474.025 125.831 474.395 125.762 474.759C125.518 476.046 124.955 477.252 124.125 478.265C123.285 479.367 122.328 480.374 121.271 481.269C120.27 482.125 118.944 483.146 117.292 484.333H124.493L123.982 487.179H111.968L112.403 484.641L113.98 483.424Z" fill="white"/>
<path d="M130.312 472.025C130.981 471.234 131.824 470.608 132.775 470.197C133.726 469.787 134.76 469.603 135.794 469.66C139.338 469.66 141.111 471.58 141.111 475.42C141.105 476.45 141.007 477.478 140.818 478.491C139.781 484.398 137.066 487.352 132.67 487.352C129.126 487.352 127.351 485.424 127.346 481.57C127.352 480.537 127.45 479.506 127.639 478.491C127.965 476.143 128.885 473.918 130.312 472.025ZM137.746 475.78C137.791 475.013 137.589 474.253 137.168 473.61C136.929 473.338 136.629 473.128 136.291 472.998C135.954 472.867 135.59 472.819 135.231 472.859C134.663 472.823 134.096 472.944 133.593 473.209C133.09 473.474 132.669 473.872 132.377 474.361C131.672 475.655 131.209 477.068 131.011 478.528C130.848 479.4 130.757 480.285 130.74 481.172C130.693 481.947 130.893 482.717 131.311 483.372C131.551 483.644 131.853 483.855 132.191 483.986C132.53 484.116 132.895 484.163 133.256 484.123C134.056 484.161 134.84 483.893 135.449 483.372C136.027 482.83 136.462 482.154 136.718 481.404C137.053 480.426 137.304 479.421 137.469 478.401C137.633 477.539 137.726 476.665 137.746 475.788V475.78Z" fill="white"/>
<path d="M143.746 483.424C145.558 482.113 146.978 481.034 148.004 480.188C148.98 479.411 149.88 478.544 150.692 477.597C151.367 476.862 151.833 475.96 152.044 474.984C152.094 474.752 152.119 474.515 152.119 474.278C152.135 474.027 152.098 473.775 152.012 473.538C151.925 473.302 151.79 473.086 151.616 472.904C151.197 472.553 150.659 472.378 150.114 472.416C149.748 472.406 149.383 472.471 149.044 472.608C148.704 472.745 148.396 472.951 148.139 473.212C147.568 473.844 147.188 474.625 147.043 475.465H143.746C144.015 473.726 144.91 472.145 146.262 471.019C147.532 470.021 149.107 469.49 150.722 469.517C152.043 469.42 153.352 469.825 154.387 470.651C154.799 471.032 155.124 471.498 155.339 472.017C155.554 472.535 155.655 473.094 155.633 473.655C155.634 474.025 155.601 474.394 155.536 474.759C155.292 476.046 154.729 477.252 153.899 478.266C153.059 479.367 152.102 480.374 151.045 481.269C150.016 482.125 148.695 483.146 147.065 484.333H154.267L153.748 487.164H141.734L142.177 484.626L143.746 483.424Z" fill="white"/>
<path d="M156.317 483.935L156.782 481.254L166.784 469.833H170.734L168.812 480.961H170.929L170.419 483.965H168.286L167.655 487.434H164.261L164.869 483.965L156.317 483.935ZM166.904 473.49L160.612 480.999H165.59L166.904 473.49Z" fill="white"/>
<path d="M611.551 405.187C611.55 413.884 609.65 422.477 605.985 430.364C602.319 438.252 596.976 445.244 590.328 450.853C583.681 456.462 575.889 460.552 567.497 462.837C559.105 465.123 550.315 465.549 541.742 464.086C533.168 462.623 525.017 459.306 517.858 454.367C510.699 449.428 504.704 442.986 500.292 435.49C495.881 427.994 493.159 419.626 492.316 410.969C491.474 402.312 492.531 393.576 495.414 385.37L504.035 369.285L524.587 330.921L539.275 303.498L582.956 221.941H609.891L566.008 303.836L553.993 326.303L543.48 346.007L522.492 385.055C518.494 390.727 516.264 397.457 516.084 404.395C515.903 411.333 517.78 418.169 521.479 424.042C524.735 429.229 529.288 433.477 534.689 436.365C540.089 439.253 546.15 440.682 552.272 440.511C558.394 440.339 564.365 438.573 569.596 435.388C574.826 432.202 579.135 427.706 582.096 422.345C585.057 416.984 586.567 410.943 586.479 404.819C586.39 398.696 584.705 392.701 581.59 387.428C578.475 382.155 574.038 377.786 568.717 374.753C563.397 371.72 557.377 370.128 551.252 370.134C550.929 370.134 550.614 370.134 550.314 370.134L562.989 346.458C576.654 349.064 588.981 356.356 597.846 367.077C606.711 377.798 611.558 391.275 611.551 405.187Z" fill="white"/>
<path d="M653.835 405.329C653.8 428.359 646.018 450.708 631.742 468.779C617.466 486.85 597.525 499.593 575.129 504.957C552.732 510.321 529.183 507.995 508.269 498.352C487.355 488.709 470.293 472.311 459.828 451.796L474.539 424.335C476.925 434.058 481.151 443.234 486.989 451.368C490.62 456.403 494.817 461.004 499.499 465.079C508.465 472.851 519.065 478.505 530.514 481.623C541.962 484.74 553.965 485.241 565.634 483.089C577.302 480.936 588.337 476.186 597.919 469.188C607.502 462.191 615.387 453.127 620.99 442.668C626.593 432.209 629.77 420.623 630.286 408.769C630.802 396.915 628.644 385.097 623.971 374.19C619.298 363.284 612.231 353.569 603.293 345.765C594.355 337.962 583.775 332.27 572.338 329.111L583.602 307.996C604.046 314.79 621.832 327.849 634.438 345.319C647.044 362.79 653.83 383.785 653.835 405.329Z" fill="#B01730"/>
<path d="M583.053 180.055L450.847 426.888C446.369 405.205 449.002 382.655 458.357 362.587C458.357 362.587 458.357 362.55 458.357 362.535L556.133 180.055H583.053Z" fill="#B01730"/>
<path d="M425.572 405.329C425.593 424.497 420.24 443.287 410.119 459.565C399.999 475.843 385.516 488.958 368.317 497.419C351.117 505.88 331.89 509.348 312.818 507.431C293.746 505.513 275.594 498.286 260.423 486.57L271.687 465.447C279.62 472.304 288.839 477.514 298.805 480.774C308.771 484.034 319.287 485.279 329.739 484.436C340.191 483.593 350.371 480.679 359.686 475.864C369.001 471.049 377.265 464.428 383.997 456.389C390.728 448.349 395.794 439.05 398.897 429.034C402.001 419.018 403.081 408.484 402.074 398.047C401.067 387.609 397.994 377.476 393.034 368.238C388.074 358.999 381.325 350.84 373.181 344.235C370.527 342.048 367.73 340.041 364.808 338.227C358.419 334.246 351.493 331.199 344.24 329.179L355.504 308.056C362.614 310.439 369.441 313.597 375.861 317.472C378.129 318.839 380.339 320.291 382.492 321.827C395.816 331.297 406.68 343.818 414.175 358.345C421.67 372.872 425.578 388.983 425.572 405.329Z" fill="#B01730"/>
<path d="M485.322 181.264L469.403 205.654H341.071L265.98 341.614C261.49 319.934 264.124 297.383 273.489 277.321C273.489 277.321 273.489 277.276 273.489 277.261L327.87 180.055L485.322 181.264Z" fill="#B01730"/>
<path d="M315.157 346.007L314.992 346.322L337.88 303.52L315.157 346.007Z" fill="white"/>
<path d="M442.295 246.323L458.229 221.926H354.701L283.364 355.086C284.528 356.152 285.737 357.151 286.991 358.089C292.065 362.003 297.741 365.069 303.796 367.168L368.517 246.271L442.295 246.323Z" fill="white"/>
<path d="M322.561 369.871H322.869C324.74 369.874 326.608 370.022 328.456 370.314C334.153 371.222 339.537 373.526 344.128 377.02C348.35 380.218 351.799 384.324 354.22 389.034C354.22 389.034 354.22 389.034 354.22 389.072C354.355 389.335 354.475 389.583 354.603 389.823C358.258 397.262 359.169 405.753 357.177 413.799C355.185 421.845 350.418 428.93 343.714 433.805C337.011 438.68 328.802 441.033 320.534 440.449C312.266 439.865 304.469 436.382 298.517 430.612C298.314 430.425 298.112 430.222 297.916 430.019C296.232 428.345 294.722 426.503 293.411 424.523L281.231 447.403C291.33 457.532 304.727 463.703 318.989 464.795C333.25 465.888 347.431 461.829 358.955 453.357C370.479 444.884 378.582 432.56 381.793 418.622C385.004 404.683 383.11 390.056 376.454 377.395C376.357 377.215 376.259 377.035 376.154 376.855C375.981 376.517 375.801 376.194 375.613 375.863C371.649 368.982 366.367 362.95 360.07 358.112C358.688 357.045 357.261 356.054 355.797 355.108C349.41 351.013 342.299 348.179 334.846 346.758H334.741L322.366 369.871H322.561Z" fill="white"/>
</svg>
